<?xml version="1.0" encoding="UTF-8"?>
<svg width="30px" height="28px" viewBox="0 0 30 28" version="1.1" xmlns="http://www.w3.org/2000/svg" xmlns:xlink="http://www.w3.org/1999/xlink">
    <!-- Generator: Sketch 40 (33762) - http://www.bohemiancoding.com/sketch -->
    <title>Group 15</title>
    <desc>Created with Sketch.</desc>
    <defs></defs>
    <g id="Page-1" stroke="none" stroke-width="1" fill="none" fill-rule="evenodd">
        <g id="01-Geografica-LojaVirtual-Home" transform="translate(-321.000000, -1166.000000)" fill="#FFFFFF">
            <g id="Hover-Produto" transform="translate(115.000000, 677.000000)">
                <g id="Group" transform="translate(20.000000, 481.000000)">
                    <g id="Group-15" transform="translate(186.000000, 8.000000)">
                        <path d="M11.8327022,27.5318166 C13.6531719,27.5318166 15.1249689,26.0460339 15.1249689,24.2181019 C15.1249689,22.3901699 13.6531719,20.9043871 11.8327022,20.9043871 C10.0122326,20.9043871 8.54043556,22.3901699 8.54043556,24.2181019 C8.54043556,26.0460339 10.0122326,27.5318166 11.8327022,27.5318166 L11.8327022,27.5318166 Z M11.8327022,25.5318166 C11.1210584,25.5318166 10.5404356,24.9456764 10.5404356,24.2181019 C10.5404356,23.4905273 11.1210584,22.9043871 11.8327022,22.9043871 C12.544346,22.9043871 13.1249689,23.4905273 13.1249689,24.2181019 C13.1249689,24.9456764 12.544346,25.5318166 11.8327022,25.5318166 L11.8327022,25.5318166 Z" id="Stroke-224"></path>
                        <path d="M21.5753333,27.5318166 C23.395803,27.5318166 24.8676,26.0460339 24.8676,24.2181019 C24.8676,22.3901699 23.395803,20.9043871 21.5753333,20.9043871 C19.7548637,20.9043871 18.2830667,22.3901699 18.2830667,24.2181019 C18.2830667,26.0460339 19.7548637,27.5318166 21.5753333,27.5318166 L21.5753333,27.5318166 Z M21.5753333,25.5318166 C20.8636895,25.5318166 20.2830667,24.9456764 20.2830667,24.2181019 C20.2830667,23.4905273 20.8636895,22.9043871 21.5753333,22.9043871 C22.2869772,22.9043871 22.8676,23.4905273 22.8676,24.2181019 C22.8676,24.9456764 22.2869772,25.5318166 21.5753333,25.5318166 L21.5753333,25.5318166 Z" id="Stroke-226"></path>
                        <path d="M5.96962667,5.6677116 L28.0112267,5.6677116 C28.0110632,5.6677116 27.9897154,5.66471647 27.842563,5.57185555 C27.4767942,5.34103618 27.3963664,4.95085826 27.4754178,4.70305542 L24.1152134,15.336521 C24.1073372,15.3612309 24.0812502,15.409231 24.061049,15.4337866 C24.1214783,15.3603316 24.2384349,15.2821317 24.5012711,15.2821317 L9.47958222,15.2821317 C9.8046499,15.2821317 9.9117008,15.3699335 9.96993366,15.4538144 C9.93042424,15.3969035 9.88530387,15.3040115 9.86481327,15.2397796 L6.50459689,4.80558012 C6.56716891,5.00064964 6.51983432,5.28111827 6.30884803,5.4905373 C6.16812168,5.6302183 6.04611973,5.6677116 5.96962667,5.6677116 L5.96962667,5.6677116 Z M5.96962667,3.6677116 C5.01953192,3.6677116 4.27597407,4.40574612 4.60052509,5.41755173 L7.96025645,15.8502349 C8.20465897,16.616377 8.66684768,17.2821317 9.47958222,17.2821317 L24.5012711,17.2821317 C25.2704057,17.2821317 25.7991394,16.639428 26.0215413,15.9414247 L29.3816399,5.30829089 C29.5507942,4.77805462 29.4339407,4.21116528 28.9099126,3.88047596 C28.6261624,3.7014147 28.3859439,3.6677116 28.0112267,3.6677116 L5.96962667,3.6677116 L5.96962667,3.6677116 Z" id="Stroke-228"></path>
                        <path d="M6.45537178,4.20495829 L5.30923845,1.37837522 C5.10170784,0.866565205 4.51856704,0.619898014 4.00675703,0.827428627 C3.49494702,1.03495924 3.24827983,1.61810003 3.45581044,2.12991005 L4.60194377,4.95649312 C4.80947438,5.46830313 5.39261518,5.71497032 5.90442519,5.50743971 C6.41623521,5.2999091 6.6629024,4.7167683 6.45537178,4.20495829 L6.45537178,4.20495829 Z" id="Stroke-230"></path>
                        <path d="M9.54037333,15.149116 C8.822072,15.149116 8.24415778,15.7150754 8.03864635,16.3954477 L6.31154627,21.0043151 C6.11796702,21.5215631 6.3803524,22.0978025 6.89760042,22.2913817 C7.41484845,22.484961 7.99108781,22.2225756 8.18466706,21.7053276 L9.93248928,17.0351081 C9.92840063,17.0558954 9.83321096,17.149116 9.54037333,17.149116 C10.0926581,17.149116 10.5403733,16.7014007 10.5403733,16.149116 C10.5403733,15.5968312 10.0926581,15.149116 9.54037333,15.149116 L9.54037333,15.149116 Z" id="Stroke-232"></path>
                        <path d="M1,2 L4.11111111,2 C4.66339586,2 5.11111111,1.55228475 5.11111111,1 C5.11111111,0.44771525 4.66339586,0 4.11111111,0 L1,0 C0.44771525,0 0,0.44771525 0,1 C0,1.55228475 0.44771525,2 1,2 L1,2 Z" id="Stroke-234"></path>
                        <path d="M7.22222222,22.6206897 L25.2666667,22.6206897 C25.8189514,22.6206897 26.2666667,22.1729744 26.2666667,21.6206897 C26.2666667,21.0684049 25.8189514,20.6206897 25.2666667,20.6206897 L7.22222222,20.6206897 C6.66993747,20.6206897 6.22222222,21.0684049 6.22222222,21.6206897 C6.22222222,22.1729744 6.66993747,22.6206897 7.22222222,22.6206897 L7.22222222,22.6206897 Z" id="Stroke-236"></path>
                    </g>
                </g>
            </g>
        </g>
    </g>
</svg>